# xmcd CD database file
#
# Track frame offsets:
#	150
#	51150
#	97350
#	139800
#	177432
#	208460
#	243560
#
# Disc length: 3925 seconds
#
# Revision: 0
# Processed by: cddbd v1.5.1PL0 Copyright (c) Steve Scherf et al.
# Submitted via: CDex 1.51
#
DISCID=720f5307
DTITLE=Sonny Rollins - Milestone Jazzstars In Concert [CD2]
DYEAR=1978
DGENRE=Jazz
TTITLE0=N. O. Blues
TTITLE1=Willow Weep For Me
TTITLE2=In A Sentimental Mood
TTITLE3=A Little Pianissimo
TTITLE4=Don't Stop The Carnival
TTITLE5=I Mean You
TTITLE6=N. O. Blues (Alternate Take)
EXTD=YEAR: 1978
EXTT0=
EXTT1=
EXTT2=
EXTT3=
EXTT4=
EXTT5=
EXTT6=
PLAYORDER=
